<?xml version="1.0" standalone="no"?>
<!DOCTYPE svg PUBLIC "-//W3C//DTD SVG 20010904//EN"
 "http://www.w3.org/TR/2001/REC-SVG-20010904/DTD/svg10.dtd">
<svg version="1.0" xmlns="http://www.w3.org/2000/svg"
 width="171.000000pt" height="256.000000pt" viewBox="0 0 171.000000 256.000000"
 preserveAspectRatio="xMidYMid meet">

<g transform="translate(0.000000,256.000000) scale(0.100000,-0.100000)"
fill="#000000" stroke="none">
<path d="M266 2418 c-30 -47 -86 -177 -108 -254 -33 -118 -31 -289 5 -399 32
-97 86 -191 148 -259 l46 -50 124 125 c130 131 224 213 258 224 26 8 61 -26
61 -61 0 -18 6 -28 21 -31 20 -6 21 -10 14 -76 -10 -109 -77 -337 -138 -474
-11 -26 -16 -51 -12 -65 7 -19 14 -205 18 -469 2 -89 0 -98 -26 -138 -32 -49
-45 -105 -27 -116 7 -4 24 5 42 21 17 16 29 25 26 19 -2 -5 -12 -28 -22 -49
-22 -49 -14 -98 20 -133 29 -29 68 -28 72 3 2 11 -4 27 -13 34 -19 16 -19 41
0 66 14 18 14 18 15 -4 0 -13 11 -34 25 -48 14 -14 25 -31 25 -38 0 -7 9 -25
21 -40 40 -51 139 -22 139 42 0 27 -25 39 -45 22 -26 -22 -28 -4 -9 90 18 90
19 91 36 70 21 -26 23 -61 6 -78 -10 -9 -9 -16 4 -28 36 -37 96 27 84 90 -4
17 -22 54 -40 81 -50 74 -118 352 -117 480 1 33 -4 80 -10 105 -13 52 -1 131
50 324 17 65 34 151 37 190 3 39 15 88 25 109 10 21 19 52 19 70 0 47 13 61
49 54 17 -4 39 -15 49 -25 24 -24 278 -88 313 -79 15 4 48 26 73 49 46 43 47
44 57 133 15 120 8 245 -15 280 -25 38 -104 85 -143 85 -66 0 -250 -50 -278
-76 -14 -13 -34 -24 -43 -24 -25 0 -46 16 -37 29 11 19 -23 61 -49 61 -13 0
-26 7 -30 15 -6 17 -51 20 -61 5 -4 -7 -14 -5 -28 5 -27 19 -51 19 -67 0 -7
-8 -25 -15 -40 -15 -36 0 -53 -22 -48 -60 9 -59 -13 -57 -124 10 -57 35 -150
95 -208 135 -58 39 -110 74 -117 78 -7 5 -18 -2 -27 -15z m96 -45 c38 -25 68
-53 68 -60 0 -8 4 -12 9 -9 5 4 76 -35 158 -86 l148 -93 37 -75 c54 -110 52
-120 -29 -160 -50 -25 -91 -58 -162 -129 -51 -52 -104 -101 -116 -107 -21 -11
-24 -9 -41 27 -16 36 -44 71 -44 55 0 -4 14 -33 30 -66 17 -33 30 -67 30 -77
0 -20 -78 -103 -96 -103 -19 0 -103 117 -140 195 -89 186 -90 374 -4 591 32
81 67 144 78 144 4 0 37 -21 74 -47z m1137 -150 c50 -37 69 -64 32 -43 -25 13
-38 -4 -20 -26 14 -17 5 -288 -11 -330 -12 -30 -15 -30 -175 4 l-130 27 0 55
0 55 149 0 c160 0 164 2 152 50 l-6 25 -145 0 -145 0 0 39 c0 21 -7 55 -15 74
-8 20 -15 39 -15 41 0 11 208 63 256 65 12 1 44 -16 73 -36z m-329 -83 c0 -11
-7 -20 -15 -20 -11 0 -15 -12 -15 -45 0 -42 -2 -45 -32 -53 -44 -11 -45 -28
-3 -42 34 -11 36 -14 33 -48 -3 -33 -6 -37 -28 -34 -54 6 -72 13 -67 26 3 8 1
18 -5 24 -11 11 -5 33 30 112 8 19 14 36 13 38 -1 1 6 16 14 32 12 23 22 30
45 30 23 0 30 -4 30 -20z m394 4 c8 -20 8 -132 0 -161 -4 -13 -13 -23 -21 -23
-12 0 -12 2 1 16 17 17 22 54 7 54 -6 0 -10 17 -10 38 0 20 -2 49 -4 65 -5 30
16 39 27 11z m-299 -144 c3 -6 -1 -13 -10 -16 -19 -8 -30 0 -20 15 8 14 22 14
30 1z m292 -72 c-3 -8 -6 -5 -6 6 -1 11 2 17 5 13 3 -3 4 -12 1 -19z m-591
-284 c-3 -9 -6 -25 -6 -37 -1 -18 -2 -19 -10 -6 -11 18 -2 59 12 59 6 0 7 -7
4 -16z m-70 -82 c-20 -20 -22 -1 -3 28 10 18 12 18 15 4 2 -9 -3 -24 -12 -32z
m32 -2 c-7 -11 -14 -17 -17 -15 -2 3 1 11 7 18 7 8 8 18 4 22 -4 5 -1 5 5 1
10 -5 10 -11 1 -26z m-44 -268 c-4 -9 -6 -20 -6 -24 1 -5 -2 -8 -7 -8 -5 0
-12 -8 -14 -17 -3 -10 -5 1 -6 25 -1 31 3 42 14 42 8 0 15 6 16 13 0 9 2 9 6
-1 3 -7 1 -20 -3 -30z m-56 -46 c-10 -7 -18 -23 -18 -34 0 -11 -4 -24 -10 -27
-6 -4 -10 7 -10 26 0 38 28 75 44 59 8 -8 6 -15 -6 -24z m19 -306 c-3 -23 -1
-38 4 -34 5 3 10 17 10 32 1 20 4 16 9 -13 5 -32 2 -43 -13 -57 -28 -26 -37
-22 -38 15 0 17 -3 26 -6 20 -2 -7 -9 -13 -14 -13 -12 0 -12 47 1 55 6 3 10 1
10 -4 0 -6 5 -11 11 -11 6 0 9 6 6 14 -5 12 9 36 21 36 3 0 2 -18 -1 -40z m73
-290 c0 -34 -44 -90 -70 -90 -10 0 -22 -4 -25 -10 -8 -13 -25 -13 -25 -1 0 5
7 17 16 26 9 8 14 24 11 35 -3 12 4 29 20 45 31 30 47 32 40 5 -3 -11 -2 -20
3 -20 12 0 21 30 13 42 -3 7 -1 8 5 4 7 -4 12 -20 12 -36z"/>
<path d="M350 2102 c0 -6 -21 -23 -47 -36 l-48 -24 43 -17 c24 -10 43 -24 43
-34 1 -9 5 13 9 49 4 36 6 67 4 69 -2 2 -4 -1 -4 -7z"/>
<path d="M342 1945 c0 -16 2 -22 5 -12 2 9 2 23 0 30 -3 6 -5 -1 -5 -18z"/>
</g>
</svg>
